<?xml version="1.0" encoding="UTF-8" standalone="no"?>
<!-- Created with Inkscape (http://www.inkscape.org/) -->

<svg
   xmlns:dc="http://purl.org/dc/elements/1.1/"
   xmlns:cc="http://creativecommons.org/ns#"
   xmlns:rdf="http://www.w3.org/1999/02/22-rdf-syntax-ns#"
   xmlns:svg="http://www.w3.org/2000/svg"
   xmlns="http://www.w3.org/2000/svg"
   xmlns:sodipodi="http://sodipodi.sourceforge.net/DTD/sodipodi-0.dtd"
   xmlns:inkscape="http://www.inkscape.org/namespaces/inkscape"
   width="23.8125mm"
   height="23.8125mm"
   viewBox="0 0 23.8125 23.812499"
   version="1.1"
   id="svg5344"
   inkscape:version="0.92.4 (5da689c313, 2019-01-14)"
   sodipodi:docname="mint.svg">
  <defs
     id="defs5338">
    <inkscape:path-effect
       effect="simplify"
       id="path-effect819"
       is_visible="true"
       steps="1"
       threshold="0.5"
       smooth_angles="360"
       helper_size="0"
       simplify_individual_paths="false"
       simplify_just_coalesce="false"
       simplifyindividualpaths="false"
       simplifyJustCoalesce="false" />
  </defs>
  <sodipodi:namedview
     id="base"
     pagecolor="#ffffff"
     bordercolor="#666666"
     borderopacity="1.0"
     inkscape:pageopacity="0.0"
     inkscape:pageshadow="2"
     inkscape:zoom="11.313708"
     inkscape:cx="6.658359"
     inkscape:cy="39.276148"
     inkscape:document-units="mm"
     inkscape:current-layer="layer1"
     showgrid="true"
     inkscape:window-width="3000"
     inkscape:window-height="1895"
     inkscape:window-x="-13"
     inkscape:window-y="-13"
     inkscape:window-maximized="1"
     fit-margin-top="0"
     fit-margin-left="0"
     fit-margin-right="0"
     fit-margin-bottom="0"
     inkscape:snap-nodes="false"
     showguides="false">
    <inkscape:grid
       type="xygrid"
       id="grid7016"
       originx="-17.635836"
       originy="-36.74931" />
  </sodipodi:namedview>
  <metadata
     id="metadata5341">
    <rdf:RDF>
      <cc:Work
         rdf:about="">
        <dc:format>image/svg+xml</dc:format>
        <dc:type
           rdf:resource="http://purl.org/dc/dcmitype/StillImage" />
        <dc:title />
      </cc:Work>
    </rdf:RDF>
  </metadata>
  <g
     inkscape:label="Layer 1"
     inkscape:groupmode="layer"
     id="layer1"
     transform="translate(-66.923935,-138.95813)"
     style="display:inline">
    <path
       style="fill:none;fill-opacity:0.88108108;stroke:#1e8f1e;stroke-width:1.00000001;stroke-miterlimit:4;stroke-dasharray:none;stroke-opacity:1"
       d="M 44.845703 6.1445312 C 41.843307 7.9186769 39.213348 9.5958418 36.90625 11.275391 L 35.345703 7.8945312 C 32.755474 11.204885 30.966643 14.389112 29.705078 17.279297 L 26.345703 13.894531 C 24.600401 19.252706 24.105602 23.931145 24.171875 27.703125 L 21.050781 25.498047 C 20.2236 31.352733 20.625047 36.221419 21.419922 40.003906 L 17.345703 38.894531 C 18.312358 43.458665 19.788806 47.186534 21.371094 50.171875 L 18.345703 49.894531 C 22.911473 61.219021 29.848347 66.284207 32.4375 67.865234 C 36.686868 72.699414 41.472245 76.433745 44.845703 80.144531 C 49.724492 76.421265 55.384273 72.140609 59.746094 66.101562 C 63.027918 63.483766 67.886217 58.475101 71.345703 49.894531 L 68.318359 50.171875 C 69.900661 47.186523 71.379041 43.458699 72.345703 38.894531 L 68.269531 40.003906 C 69.064419 36.221406 69.46586 31.352782 68.638672 25.498047 L 65.517578 27.703125 C 65.583851 23.931145 65.091005 19.252706 63.345703 13.894531 L 59.986328 17.28125 C 58.724718 14.390442 56.936639 11.205789 54.345703 7.8945312 L 52.748047 11.357422 C 50.358447 9.5061523 47.723688 7.7967064 44.845703 6.1445312 z "
       transform="matrix(0.26458333,0,0,0.26458333,66.923935,138.95813)"
       id="rect3120" />
  </g>
  <g
     inkscape:groupmode="layer"
     id="masklayer"
     inkscape:label="masklayer 1"
     style="fill:#ffffff"
     transform="translate(-16.46738,0.89827012)" />
</svg>
