<?xml version="1.0" encoding="UTF-8" standalone="no"?>
<!-- Created with Inkscape (http://www.inkscape.org/) -->

<svg
   xmlns:dc="http://purl.org/dc/elements/1.1/"
   xmlns:cc="http://creativecommons.org/ns#"
   xmlns:rdf="http://www.w3.org/1999/02/22-rdf-syntax-ns#"
   xmlns:svg="http://www.w3.org/2000/svg"
   xmlns="http://www.w3.org/2000/svg"
   xmlns:sodipodi="http://sodipodi.sourceforge.net/DTD/sodipodi-0.dtd"
   xmlns:inkscape="http://www.inkscape.org/namespaces/inkscape"
   width="2.6458335mm"
   height="2.6458333mm"
   viewBox="0 0 2.6458335 2.6458333"
   version="1.1"
   id="svg872"
   inkscape:version="0.92.4 (5da689c313, 2019-01-14)"
   sodipodi:docname="base.svg">
  <defs
     id="defs866" />
  <sodipodi:namedview
     id="base"
     pagecolor="#ffffff"
     bordercolor="#666666"
     borderopacity="1.0"
     inkscape:pageopacity="0.0"
     inkscape:pageshadow="2"
     inkscape:zoom="45.254834"
     inkscape:cx="8.6424068"
     inkscape:cy="1.7267341"
     inkscape:document-units="mm"
     inkscape:current-layer="layer1"
     showgrid="true"
     fit-margin-top="0"
     fit-margin-left="0"
     fit-margin-right="0"
     fit-margin-bottom="0"
     inkscape:window-width="3000"
     inkscape:window-height="1895"
     inkscape:window-x="-13"
     inkscape:window-y="-13"
     inkscape:window-maximized="1"
     inkscape:snap-bbox="false">
    <inkscape:grid
       type="xygrid"
       id="grid2433"
       originx="-6.1366257e-07"
       originy="-8.4994541e-09" />
  </sodipodi:namedview>
  <metadata
     id="metadata869">
    <rdf:RDF>
      <cc:Work
         rdf:about="">
        <dc:format>image/svg+xml</dc:format>
        <dc:type
           rdf:resource="http://purl.org/dc/dcmitype/StillImage" />
        <dc:title></dc:title>
      </cc:Work>
    </rdf:RDF>
  </metadata>
  <g
     inkscape:label="Layer 1"
     inkscape:groupmode="layer"
     id="layer1"
     transform="translate(0.08581342,-1.7135204)">
    <g
       id="g5178">
      <g
         inkscape:tile-y0="0.0046099717"
         inkscape:tile-x0="-0.011616047"
         transform="matrix(0.66142322,0,0,0.6699245,-27.905856,-94.906615)"
         id="use1594"
         style="font-style:normal;font-variant:normal;font-weight:normal;font-stretch:normal;font-size:5.64444447px;line-height:1.25;font-family:'Bauhaus 93';-inkscape-font-specification:'Bauhaus 93, ';letter-spacing:0px;word-spacing:0px;fill:#000000;fill-opacity:1;stroke:none;stroke-width:0.26458332"
         aria-label="C">
        <path
           sodipodi:nodetypes="ccsccccsccc"
           inkscape:connector-curvature="0"
           id="path4736"
           style="font-style:normal;font-variant:normal;font-weight:normal;font-stretch:normal;font-size:5.64444447px;font-family:'Bauhaus 93';-inkscape-font-specification:'Bauhaus 93, ';stroke-width:0.26458332"
           d="m 44.034231,148.17486 c -0.560402,0 -1.029854,-0.18741 -1.408355,-0.56224 -0.376664,-0.37666 -0.564996,-0.84335 -0.564996,-1.40008 0,-0.56041 0.192007,-1.0317 0.57602,-1.41387 0.385851,-0.38217 0.860815,-0.57326 1.424892,-0.57326 l -0.02756,1.10791 c -0.23886,0 -0.436379,0.0827 -0.592556,0.24805 -0.154341,0.16536 -0.231511,0.37574 -0.231511,0.63114 0,0.24621 0.07625,0.45016 0.228754,0.61185 0.152503,0.15985 0.345429,0.23977 0.578777,0.23977 z" />
      </g>
      <path
         inkscape:connector-curvature="0"
         id="path4748"
         d="m 1.2256398,4.3589652 c -0.00421,-7.417e-4 -0.00444,-0.0022 -0.00565,-0.03531 -6.931e-4,-0.018995 -0.00328,-0.1853309 -0.00576,-0.369634 -0.00247,-0.1843031 -0.00515,-0.3358494 -0.00594,-0.3367695 -7.964e-4,-9.201e-4 -0.015689,-0.00252 -0.033094,-0.00356 C 1.0955336,3.6089152 1.033666,3.5932455 0.97080423,3.561917 0.91841701,3.5358087 0.8770019,3.5055111 0.83479787,3.4624201 0.74662799,3.3723974 0.69612255,3.2633733 0.67971826,3.1276556 0.67529948,3.0911006 0.67471125,3.00396 0.67864283,2.9683814 0.69525542,2.8180437 0.74775666,2.7029194 0.84327837,2.6073696 0.90235906,2.5482716 0.96586266,2.5087106 1.0419467,2.4836038 c 0.045962,-0.015168 0.086295,-0.022514 0.1434948,-0.026137 0.018693,-0.00118 0.034192,-0.00237 0.034439,-0.00263 2.479e-4,-2.621e-4 0.00451,-0.1668041 0.00948,-0.3700933 0.00497,-0.2032893 0.00957,-0.370158 0.010234,-0.3708193 0.00177,-0.00177 0.093168,0.00267 0.1279503,0.00621 C 1.682504,1.7522362 1.9701567,1.8915696 2.189028,2.1180409 2.30075,2.2336423 2.3901553,2.3685919 2.4540996,2.5181437 2.5492369,2.7406488 2.5813635,2.988513 2.5461036,3.227971 2.5136005,3.4487065 2.4272003,3.6550502 2.2920891,3.8346203 2.0632794,4.1387205 1.7046441,4.3323544 1.3261897,4.3561275 c -0.038748,0.00243 -0.093985,0.00399 -0.1005501,0.00283 z"
         style="fill:#e9c6af;fill-opacity:1;stroke:none;stroke-width:0.00207145;stroke-miterlimit:4;stroke-dasharray:none;stroke-opacity:0.92710996" />
    </g>
  </g>
</svg>
