<?xml version="1.0" encoding="UTF-8" standalone="no"?>
<!-- Created with Inkscape (http://www.inkscape.org/) -->

<svg
   xmlns:dc="http://purl.org/dc/elements/1.1/"
   xmlns:cc="http://creativecommons.org/ns#"
   xmlns:rdf="http://www.w3.org/1999/02/22-rdf-syntax-ns#"
   xmlns:svg="http://www.w3.org/2000/svg"
   xmlns="http://www.w3.org/2000/svg"
   xmlns:sodipodi="http://sodipodi.sourceforge.net/DTD/sodipodi-0.dtd"
   xmlns:inkscape="http://www.inkscape.org/namespaces/inkscape"
   width="55.052296mm"
   height="99.354897mm"
   viewBox="0 0 55.052296 99.354897"
   version="1.1"
   id="svg15349"
   inkscape:version="0.92.4 (5da689c313, 2019-01-14)"
   sodipodi:docname="imperal_stout.svg">
  <defs
     id="defs15343" />
  <sodipodi:namedview
     id="base"
     pagecolor="#ffffff"
     bordercolor="#666666"
     borderopacity="1.0"
     inkscape:pageopacity="0.0"
     inkscape:pageshadow="2"
     inkscape:zoom="3.959798"
     inkscape:cx="90.592644"
     inkscape:cy="225.68397"
     inkscape:document-units="mm"
     inkscape:current-layer="layer1"
     showgrid="true"
     fit-margin-top="0"
     fit-margin-left="0"
     fit-margin-right="0"
     fit-margin-bottom="0"
     inkscape:window-width="3000"
     inkscape:window-height="1895"
     inkscape:window-x="-13"
     inkscape:window-y="-13"
     inkscape:window-maximized="1">
    <inkscape:grid
       type="xygrid"
       id="grid15900" />
  </sodipodi:namedview>
  <metadata
     id="metadata15346">
    <rdf:RDF>
      <cc:Work
         rdf:about="">
        <dc:format>image/svg+xml</dc:format>
        <dc:type
           rdf:resource="http://purl.org/dc/dcmitype/StillImage" />
        <dc:title></dc:title>
      </cc:Work>
    </rdf:RDF>
  </metadata>
  <g
     inkscape:label="Layer 1"
     inkscape:groupmode="layer"
     id="layer1"
     transform="translate(195.34758,42.207209)">
    <path
       style="display:inline;fill:none;stroke:#000000;stroke-width:0.13596712px;stroke-linecap:butt;stroke-linejoin:miter;stroke-opacity:1"
       d="m -195.27195,-42.139225 h 1.32291 c 0,0 1.70148,20.396594 3.29932,30.495434 1.68603,10.65624938 5.4134,20.9608153 6.62256,31.68165 1.33184,11.808583 0.66146,35.64422 0.66146,35.64422 l 30.35145,0.142689 c 0,0 0.20038,-23.913689 1.53622,-35.720092 1.21753,-10.7607556 5.06745,-21.10061962 6.82313,-31.786771 1.65552,-10.07653 2.96108,-30.45713 2.96108,-30.45713 h 1.32292 c 0,0 -1.67582,20.392135 -3.2524,30.491208 -1.66342,10.65534243 -5.32713,20.9695781 -6.53719,31.685876 -1.38574,12.272068 -1.53084,37.109825 -1.53084,37.109825 h -33.07292 c 0,0 0.73311,-24.862574 -0.58582,-37.109827 -1.15936,-10.7654485 -4.45238,-21.1927401 -6.67856,-31.789113 -2.09442,-9.96922 -2.16229,-20.258639 -3.24332,-30.387971 z"
       id="path5327"
       inkscape:connector-curvature="0"
       sodipodi:nodetypes="ccssccssccssccsscc" />
  </g>
</svg>
