<svg xmlns="http://www.w3.org/2000/svg" width="210mm" height="297mm" viewBox="0 0 210 297"><text y="6.537" x="7.851" style="line-height:1.25" font-weight="400" font-size="10.583" font-family="sans-serif" letter-spacing="0" word-spacing="0" stroke-width=".265"><tspan y="6.537" x="7.851" font-size="2.822">Orange Cordials</tspan></text><text y="14.002" x="8.418" style="line-height:1.25" font-weight="400" font-size="10.583" font-family="sans-serif" letter-spacing="0" word-spacing="0" stroke-width=".265"><tspan y="14.002" x="8.418" font-size="2.822">Blue Curacao</tspan></text><text y="22.412" x="9.027" style="line-height:1.25" font-weight="400" font-size="10.583" font-family="sans-serif" letter-spacing="0" word-spacing="0" stroke-width=".265"><tspan y="22.412" x="9.027" font-size="2.822">Dram</tspan></text><text y="29.594" x="8.663" style="line-height:1.25" font-weight="400" font-size="10.583" font-family="sans-serif" letter-spacing="0" word-spacing="0" stroke-width=".265"><tspan y="29.594" x="8.663" font-size="2.822">Coffee Cordial</tspan></text><text y="37.49" x="8.889" style="line-height:1.25" font-weight="400" font-size="10.583" font-family="sans-serif" letter-spacing="0" word-spacing="0" stroke-width=".265"><tspan y="37.49" x="8.889" font-size="2.822">Cherry Cordial</tspan></text><text y="44.149" x="9.15" style="line-height:1.25" font-weight="400" font-size="10.583" font-family="sans-serif" letter-spacing="0" word-spacing="0" stroke-width=".265"><tspan y="44.149" x="9.15" font-size="2.822">Apple Cordial</tspan></text><text y="2.05" x="1.574" style="line-height:1.25" font-weight="400" font-size="10.583" font-family="sans-serif" letter-spacing="0" word-spacing="0" stroke-width=".265"><tspan y="2.05" x="1.574" font-size="2.822">Cordials</tspan></text><path d="M3.675 20.39a1.323 1.323 0 0 0-1.323 1.323 1.323 1.323 0 0 0 1.323 1.322 1.323 1.323 0 0 0 1.323-1.322 1.323 1.323 0 0 0-1.323-1.324zm0 .661a.661.661 0 0 1 .661.662.661.661 0 0 1-.66.66.661.661 0 0 1-.663-.66.661.661 0 0 1 .662-.662z" fill="#80a"/><path d="M2.94 4.554a1.323 1.323 0 0 0-1.323 1.323A1.323 1.323 0 0 0 2.94 7.2a1.323 1.323 0 0 0 1.323-1.323A1.323 1.323 0 0 0 2.94 4.554zm0 .661a.661.661 0 0 1 .661.662.661.661 0 0 1-.66.661.661.661 0 0 1-.663-.661.661.661 0 0 1 .662-.662z" fill="#f60"/><path d="M3.274 11.904a1.323 1.323 0 0 0-1.323 1.323 1.323 1.323 0 0 0 1.323 1.322 1.323 1.323 0 0 0 1.323-1.322 1.323 1.323 0 0 0-1.323-1.323zm0 .661a.661.661 0 0 1 .662.662.661.661 0 0 1-.662.661.661.661 0 0 1-.661-.661.661.661 0 0 1 .661-.662z" fill="#2a7fff"/><path d="M4.544 27.606a1.323 1.323 0 0 0-1.323 1.323 1.323 1.323 0 0 0 1.323 1.323 1.323 1.323 0 0 0 1.322-1.323 1.323 1.323 0 0 0-1.322-1.323zm0 .661a.661.661 0 0 1 .661.662.661.661 0 0 1-.661.661.661.661 0 0 1-.662-.661.661.661 0 0 1 .662-.662z" fill="#803300"/><path d="M4.61 34.688a1.323 1.323 0 0 0-1.323 1.323 1.323 1.323 0 0 0 1.324 1.323 1.323 1.323 0 0 0 1.322-1.323 1.323 1.323 0 0 0-1.322-1.323zm0 .662a.661.661 0 0 1 .662.661.661.661 0 0 1-.661.662.661.661 0 0 1-.662-.662.661.661 0 0 1 .662-.661z" fill="red"/><path d="M5.145 41.57a1.323 1.323 0 0 0-1.323 1.324 1.323 1.323 0 0 0 1.323 1.322 1.323 1.323 0 0 0 1.323-1.322 1.323 1.323 0 0 0-1.323-1.323zm0 .662a.661.661 0 0 1 .661.662.661.661 0 0 1-.66.66.661.661 0 0 1-.663-.66.661.661 0 0 1 .662-.662z" fill="#c83737"/><text y="2.234" x="44.611" style="line-height:1.25" font-weight="400" font-size="10.583" font-family="sans-serif" letter-spacing="0" word-spacing="0" stroke-width=".265"><tspan y="2.234" x="44.611" font-size="2.822">Wines</tspan></text><text y="6.398" x="51.582" style="line-height:1.25" font-weight="400" font-size="10.583" font-family="sans-serif" letter-spacing="0" word-spacing="0" stroke-width=".265"><tspan y="6.398" x="51.582" font-size="2.822">White Wine</tspan></text><text y="13.145" x="51.654" style="line-height:1.25" font-weight="400" font-size="10.583" font-family="sans-serif" letter-spacing="0" word-spacing="0" stroke-width=".265"><tspan y="13.145" x="51.654" font-size="2.822">Red Wine</tspan></text><text y="20.628" x="51.988" style="line-height:1.25" font-weight="400" font-size="10.583" font-family="sans-serif" letter-spacing="0" word-spacing="0" stroke-width=".265"><tspan y="20.628" x="51.988" font-size="2.822">Sparkling Wine</tspan></text><path d="M45.831 6.927a1.3 1.3 0 0 0 .005-.685c-.1-.374-.36-.686-.713-.856a1.374 1.374 0 0 0-.542-.138 1.293 1.293 0 0 1 .345-.575 1.35 1.35 0 0 1 1.087-.381c.369.039.694.213.921.494a1.306 1.306 0 0 1 .042 1.592 1.355 1.355 0 0 1-1.095.554c-.048 0-.051 0-.05-.005z" fill="#dbe2e3"/><path d="M46.633 13.542a1.3 1.3 0 0 0 .005-.685c-.1-.374-.36-.686-.713-.856a1.374 1.374 0 0 0-.543-.138 1.293 1.293 0 0 1 .345-.575 1.35 1.35 0 0 1 1.088-.381c.369.039.694.213.92.494a1.306 1.306 0 0 1 .043 1.592 1.355 1.355 0 0 1-1.095.554c-.048 0-.052 0-.05-.005z" fill="maroon"/><path d="M46.299 21.025a1.3 1.3 0 0 0 .005-.685c-.1-.373-.36-.686-.713-.856a1.374 1.374 0 0 0-.543-.137 1.293 1.293 0 0 1 .345-.575 1.35 1.35 0 0 1 1.088-.382c.369.04.694.214.92.494a1.306 1.306 0 0 1 .042 1.592 1.355 1.355 0 0 1-1.094.555c-.048 0-.052 0-.05-.006z" fill="#ff0"/><text y="2.969" x="81.577" style="line-height:1.25" font-weight="400" font-size="10.583" font-family="sans-serif" letter-spacing="0" word-spacing="0" stroke-width=".265"><tspan y="2.969" x="81.577" font-size="2.822">Vermouth</tspan></text><text y="7.133" x="88.548" style="line-height:1.25" font-weight="400" font-size="10.583" font-family="sans-serif" letter-spacing="0" word-spacing="0" stroke-width=".265"><tspan y="7.133" x="88.548" font-size="2.822">Dry Vermouth</tspan></text><text y="13.88" x="88.62" style="line-height:1.25" font-weight="400" font-size="10.583" font-family="sans-serif" letter-spacing="0" word-spacing="0" stroke-width=".265"><tspan y="13.88" x="88.62" font-size="2.822">Sweet Vermouth</tspan></text><rect ry="0" y="4.621" x="83.067" height="2.646" width="2.646" fill="#2c2ca0"/><rect ry="0" y="11.636" x="83.736" height="2.646" width="2.646" fill="#f55"/><text y="51.561" x="2.479" style="line-height:1.25" font-weight="400" font-size="10.583" font-family="sans-serif" letter-spacing="0" word-spacing="0" stroke-width=".265"><tspan y="51.561" x="2.479" font-size="2.822">Misc</tspan></text><path d="M3.541 53.53a1.323 1.323 0 0 0-1.323 1.324 1.323 1.323 0 0 0 1.323 1.323 1.323 1.323 0 0 0 1.323-1.323 1.323 1.323 0 0 0-1.323-1.323zm0 .662a.661.661 0 0 1 .662.662.661.661 0 0 1-.662.661.661.661 0 0 1-.661-.661.661.661 0 0 1 .661-.662z" fill="#7f2aff"/><text y="55.508" x="7.349" style="line-height:1.25" font-weight="400" font-size="10.583" font-family="sans-serif" letter-spacing="0" word-spacing="0" stroke-width=".265"><tspan y="55.508" x="7.349" font-size="2.822">Misc</tspan></text><text y="26.325" x="45.629" style="line-height:1.25" font-weight="400" font-size="10.583" font-family="sans-serif" letter-spacing="0" word-spacing="0" stroke-width=".265"><tspan y="26.325" x="45.629" font-size="2.822">Juices</tspan></text><text y="30.489" x="52.6" style="line-height:1.25" font-weight="400" font-size="10.583" font-family="sans-serif" letter-spacing="0" word-spacing="0" stroke-width=".265"><tspan y="30.489" x="52.6" font-size="2.822">Grapefruit Juice</tspan></text><text y="36.539" x="52.424" style="line-height:1.25" font-weight="400" font-size="10.583" font-family="sans-serif" letter-spacing="0" word-spacing="0" stroke-width=".265"><tspan y="36.539" x="52.424" font-size="2.822">Lemon Juice</tspan></text><text y="43.488" x="52.223" style="line-height:1.25" font-weight="400" font-size="10.583" font-family="sans-serif" letter-spacing="0" word-spacing="0" stroke-width=".265"><tspan y="43.488" x="52.223" font-size="2.822">Lime Juice</tspan></text><text y="49.702" x="52.691" style="line-height:1.25" font-weight="400" font-size="10.583" font-family="sans-serif" letter-spacing="0" word-spacing="0" stroke-width=".265"><tspan y="49.702" x="52.691" font-size="2.822">Orange Juice</tspan></text><text y="56.918" x="52.758" style="line-height:1.25" font-weight="400" font-size="10.583" font-family="sans-serif" letter-spacing="0" word-spacing="0" stroke-width=".265"><tspan y="56.918" x="52.758" font-size="2.822">Pineapple Juice</tspan></text><path d="M47.908 28.408a1.323 1.323 0 1 0 0 2.645 1.323 1.323 0 0 0 0-2.645z" fill="#de87aa"/><path d="M48.042 34.22a1.323 1.323 0 1 0 0 2.647 1.323 1.323 0 0 0 0-2.646z" fill="#fc0"/><path d="M48.175 40.97a1.323 1.323 0 1 0 0 2.645 1.323 1.323 0 0 0 0-2.646z" fill="#df5"/><path d="M48.777 47.384a1.323 1.323 0 1 0 0 2.646 1.323 1.323 0 0 0 0-2.646z" fill="#ffa214"/><path d="M49.512 54.667a1.323 1.323 0 1 0 0 2.646 1.323 1.323 0 0 0 0-2.646z" fill="#decd87"/><text y="25.138" x="86.739" style="line-height:1.25" font-weight="400" font-size="10.583" font-family="sans-serif" letter-spacing="0" word-spacing="0" stroke-width=".265"><tspan y="25.138" x="86.739" font-size="2.822">Waters</tspan></text><text y="29.302" x="93.71" style="line-height:1.25" font-weight="400" font-size="10.583" font-family="sans-serif" letter-spacing="0" word-spacing="0" stroke-width=".265"><tspan y="29.302" x="93.71" font-size="2.822">Orange Blossom Water</tspan></text><text y="35.353" x="93.534" style="line-height:1.25" font-weight="400" font-size="10.583" font-family="sans-serif" letter-spacing="0" word-spacing="0" stroke-width=".265"><tspan y="35.353" x="93.534" font-size="2.822">Rose Water</tspan></text><text y="42.302" x="93.333" style="line-height:1.25" font-weight="400" font-size="10.583" font-family="sans-serif" letter-spacing="0" word-spacing="0" stroke-width=".265"><tspan y="42.302" x="93.333" font-size="2.822">Soda</tspan></text><text y="48.516" x="93.801" style="line-height:1.25" font-weight="400" font-size="10.583" font-family="sans-serif" letter-spacing="0" word-spacing="0" stroke-width=".265"><tspan y="48.516" x="93.801" font-size="2.822">Mineral Saline</tspan></text><text y="55.732" x="93.868" style="line-height:1.25" font-weight="400" font-size="10.583" font-family="sans-serif" letter-spacing="0" word-spacing="0" stroke-width=".265"><tspan y="55.732" x="93.868" font-size="2.822">Honey</tspan></text><text y="62.157" x="93.627" style="line-height:1.25" font-weight="400" font-size="10.583" font-family="sans-serif" letter-spacing="0" word-spacing="0" stroke-width=".265"><tspan y="62.157" x="93.627" font-size="2.822">Ginger Beer</tspan></text><text y="68.371" x="94.095" style="line-height:1.25" font-weight="400" font-size="10.583" font-family="sans-serif" letter-spacing="0" word-spacing="0" stroke-width=".265"><tspan y="68.371" x="94.095" font-size="2.822">Espresso</tspan></text><text y="75.587" x="94.162" style="line-height:1.25" font-weight="400" font-size="10.583" font-family="sans-serif" letter-spacing="0" word-spacing="0" stroke-width=".265"><tspan y="75.587" x="94.162" font-size="2.822">Apple Cider</tspan></text><path d="M89.936 27.465h1.47l.588 1.323h-2.646z" fill="#ffb380"/><path d="M90.204 33.746h1.47l.587 1.323h-2.645z" fill="#f5d"/><path d="M90.204 40.762h1.47l.587 1.323h-2.645z" fill="#5df"/><path d="M89.402 73.903h1.47l.588 1.323h-2.646z" fill="#a00"/><path d="M89.335 66.62h1.47l.588 1.323h-2.646z" fill="#502d16"/><path d="M90.003 47.043h1.47l.588 1.323h-2.646z" fill="#de87cd"/><path d="M90.003 53.658h1.47l.588 1.323h-2.646z" fill="#fc0"/><path d="M89.87 60.206h1.47l.587 1.323h-2.646z" fill="#ff7f2a"/><text y="64.582" x="1.395" style="line-height:1.25" font-weight="400" font-size="10.583" font-family="sans-serif" letter-spacing="0" word-spacing="0" stroke-width=".265"><tspan y="64.582" x="1.395" font-size="2.822">Syrups</tspan></text><text y="68.746" x="8.366" style="line-height:1.25" font-weight="400" font-size="10.583" font-family="sans-serif" letter-spacing="0" word-spacing="0" stroke-width=".265"><tspan y="68.746" x="8.366" font-size="2.822">Simple Syrup</tspan></text><text y="74.796" x="8.189" style="line-height:1.25" font-weight="400" font-size="10.583" font-family="sans-serif" letter-spacing="0" word-spacing="0" stroke-width=".265"><tspan y="74.796" x="8.189" font-size="2.822">Ginger Syrup</tspan></text><text y="81.745" x="7.989" style="line-height:1.25" font-weight="400" font-size="10.583" font-family="sans-serif" letter-spacing="0" word-spacing="0" stroke-width=".265"><tspan y="81.745" x="7.989" font-size="2.822">Demerara Simple Syrup</tspan></text><text y="87.959" x="8.457" style="line-height:1.25" font-weight="400" font-size="10.583" font-family="sans-serif" letter-spacing="0" word-spacing="0" stroke-width=".265"><tspan y="87.959" x="8.457" font-size="2.822">Honey Syrup</tspan></text><text y="95.176" x="8.523" style="line-height:1.25" font-weight="400" font-size="10.583" font-family="sans-serif" letter-spacing="0" word-spacing="0" stroke-width=".265"><tspan y="95.176" x="8.523" font-size="2.822">Orgeat Syrup</tspan></text><text y="101.6" x="8.283" style="line-height:1.25" font-weight="400" font-size="10.583" font-family="sans-serif" letter-spacing="0" word-spacing="0" stroke-width=".265"><tspan y="101.6" x="8.283" font-size="2.822">Violette Syrup</tspan></text><text y="107.814" x="8.751" style="line-height:1.25" font-weight="400" font-size="10.583" font-family="sans-serif" letter-spacing="0" word-spacing="0" stroke-width=".265"><tspan y="107.814" x="8.751" font-size="2.822">Maple Syrup</tspan></text><text y="115.031" x="8.818" style="line-height:1.25" font-weight="400" font-size="10.583" font-family="sans-serif" letter-spacing="0" word-spacing="0" stroke-width=".265"><tspan y="115.031" x="8.818" font-size="2.822">Grenadine Syrup</tspan></text><text y="120.655" x="8.789" style="line-height:1.25" font-weight="400" font-size="10.583" font-family="sans-serif" letter-spacing="0" word-spacing="0" stroke-width=".265"><tspan y="120.655" x="8.789" font-size="2.822">Syrup</tspan></text><g style="line-height:1.25;-inkscape-font-specification:'Bauhaus 93, '"><path d="M4.793 75.153a1.282 1.282 0 0 1-1.305-1.315c0-.375.127-.69.38-.947.256-.256.57-.384.943-.384l-.018.742a.513.513 0 0 0-.392.166.6.6 0 0 0-.153.423c0 .165.05.302.151.41.101.107.229.16.383.16z" style="-inkscape-font-specification:'Bauhaus 93, '" aria-label="C" font-weight="400" font-size="5.644" font-family="Bauhaus 93" letter-spacing="0" word-spacing="0"/></g><path d="M4.8 75.152c-.005 0-.005-.002-.006-.035l-.006-.37a20.274 20.274 0 0 0-.006-.336.154.154 0 0 0-.033-.004.501.501 0 0 1-.34-.151.554.554 0 0 1-.156-.335 1.015 1.015 0 0 1 0-.16.572.572 0 0 1 .164-.36.49.49 0 0 1 .342-.15.685.685 0 0 0 .035-.003 79.348 79.348 0 0 0 .02-.74 1.322 1.322 0 0 1-.014 2.645z" fill="#f60"/><g style="line-height:1.25;-inkscape-font-specification:'Bauhaus 93, '"><path d="M4.86 81.901a1.282 1.282 0 0 1-1.305-1.315c0-.375.127-.69.38-.946.256-.256.57-.384.943-.384l-.018.742a.513.513 0 0 0-.392.166.6.6 0 0 0-.153.423c0 .165.05.301.151.41.101.107.229.16.383.16z" style="-inkscape-font-specification:'Bauhaus 93, '" aria-label="C" font-weight="400" font-size="5.644" font-family="Bauhaus 93" letter-spacing="0" word-spacing="0"/></g><path d="M4.866 81.901c-.004 0-.004-.002-.005-.035l-.006-.37a20.274 20.274 0 0 0-.006-.337l-.033-.003a.501.501 0 0 1-.34-.152.554.554 0 0 1-.156-.334 1.015 1.015 0 0 1 0-.16.572.572 0 0 1 .164-.36.49.49 0 0 1 .342-.15.685.685 0 0 0 .034-.003 79.348 79.348 0 0 0 .02-.741 1.322 1.322 0 0 1-.014 2.645z" fill="#a05a2c"/><g style="line-height:1.25;-inkscape-font-specification:'Bauhaus 93, '"><path d="M5.328 115.243a1.282 1.282 0 0 1-1.305-1.315c0-.375.126-.69.38-.947.256-.256.57-.384.943-.384l-.018.743a.513.513 0 0 0-.392.166.6.6 0 0 0-.153.423c0 .165.05.301.15.41.102.107.23.16.384.16z" style="-inkscape-font-specification:'Bauhaus 93, '" aria-label="C" font-weight="400" font-size="5.644" font-family="Bauhaus 93" letter-spacing="0" word-spacing="0"/></g><path d="M5.334 115.243c-.004 0-.005-.002-.006-.035l-.005-.37a20.274 20.274 0 0 0-.006-.337l-.034-.003a.501.501 0 0 1-.34-.152.554.554 0 0 1-.155-.334 1.015 1.015 0 0 1-.001-.16.572.572 0 0 1 .165-.36.49.49 0 0 1 .342-.15.685.685 0 0 0 .034-.003 79.348 79.348 0 0 0 .02-.741 1.322 1.322 0 0 1-.014 2.645z" fill="red"/><g style="line-height:1.25;-inkscape-font-specification:'Bauhaus 93, '"><path d="M5.26 101.746a1.282 1.282 0 0 1-1.305-1.315c0-.375.128-.69.382-.947.255-.256.569-.384.942-.384l-.018.743a.513.513 0 0 0-.392.166.6.6 0 0 0-.153.423c0 .164.05.301.151.41.101.107.229.16.383.16z" style="-inkscape-font-specification:'Bauhaus 93, '" aria-label="C" font-weight="400" font-size="5.644" font-family="Bauhaus 93" letter-spacing="0" word-spacing="0"/></g><path d="M5.267 101.746c-.004-.001-.004-.002-.006-.036l-.005-.37a20.274 20.274 0 0 0-.006-.336l-.033-.003a.501.501 0 0 1-.34-.152.554.554 0 0 1-.156-.335 1.015 1.015 0 0 1 0-.159.572.572 0 0 1 .164-.36.49.49 0 0 1 .342-.15.685.685 0 0 0 .034-.003 79.348 79.348 0 0 0 .02-.741 1.322 1.322 0 0 1-.014 2.645z" fill="#ab37c8"/><g style="line-height:1.25;-inkscape-font-specification:'Bauhaus 93, '"><path d="M5.194 88.516a1.282 1.282 0 0 1-1.305-1.315c0-.375.127-.69.38-.946.256-.256.57-.384.943-.384l-.018.742a.513.513 0 0 0-.392.166.6.6 0 0 0-.153.423c0 .165.05.301.151.41.101.107.229.16.383.16z" style="-inkscape-font-specification:'Bauhaus 93, '" aria-label="C" font-weight="400" font-size="5.644" font-family="Bauhaus 93" letter-spacing="0" word-spacing="0"/></g><path d="M5.2 88.516c-.004 0-.004-.002-.005-.035l-.006-.37a20.274 20.274 0 0 0-.006-.337l-.033-.003a.501.501 0 0 1-.34-.152.554.554 0 0 1-.156-.334 1.015 1.015 0 0 1 0-.16.572.572 0 0 1 .164-.36.49.49 0 0 1 .342-.15.685.685 0 0 0 .035-.003 79.348 79.348 0 0 0 .02-.741 1.322 1.322 0 0 1-.014 2.645z" fill="#fc0"/><g style="line-height:1.25;-inkscape-font-specification:'Bauhaus 93, '"><path d="M5.729 108.027a1.282 1.282 0 0 1-1.305-1.315c0-.375.126-.69.38-.947.256-.256.57-.384.943-.384l-.018.742a.513.513 0 0 0-.392.167.6.6 0 0 0-.153.422c0 .165.05.302.15.41.102.107.23.16.384.16z" style="-inkscape-font-specification:'Bauhaus 93, '" aria-label="C" font-weight="400" font-size="5.644" font-family="Bauhaus 93" letter-spacing="0" word-spacing="0"/></g><path d="M5.735 108.027c-.004-.001-.005-.003-.006-.036l-.006-.37a20.274 20.274 0 0 0-.006-.336.143.143 0 0 0-.033-.004.501.501 0 0 1-.34-.15.554.554 0 0 1-.155-.336 1.015 1.015 0 0 1-.001-.159.572.572 0 0 1 .164-.361.49.49 0 0 1 .343-.15.685.685 0 0 0 .034-.003 79.348 79.348 0 0 0 .02-.74 1.322 1.322 0 0 1-.014 2.645z" fill="#2aff80"/><g style="line-height:1.25;-inkscape-font-specification:'Bauhaus 93, '"><path d="M5.328 95.332a1.282 1.282 0 0 1-1.305-1.315c0-.375.126-.691.38-.947.256-.256.57-.384.943-.384l-.018.742a.513.513 0 0 0-.392.166.6.6 0 0 0-.153.423c0 .165.05.302.15.41.102.107.23.16.384.16z" style="-inkscape-font-specification:'Bauhaus 93, '" aria-label="C" font-weight="400" font-size="5.644" font-family="Bauhaus 93" letter-spacing="0" word-spacing="0"/></g><path d="M5.334 95.331c-.004 0-.005-.002-.006-.035l-.005-.37a20.274 20.274 0 0 0-.006-.336.17.17 0 0 0-.034-.004.501.501 0 0 1-.34-.151.554.554 0 0 1-.155-.335 1.015 1.015 0 0 1-.001-.16.572.572 0 0 1 .165-.36.49.49 0 0 1 .342-.15.685.685 0 0 0 .034-.003 79.348 79.348 0 0 0 .02-.74 1.322 1.322 0 0 1-.014 2.645z" fill="#e9c6af"/><g style="line-height:1.25;-inkscape-font-specification:'Bauhaus 93, '"><path d="M5.06 69.072a1.282 1.282 0 0 1-1.305-1.315c0-.375.127-.69.381-.946a1.28 1.28 0 0 1 .943-.384l-.019.742a.513.513 0 0 0-.392.166.6.6 0 0 0-.153.423c0 .165.05.301.152.41a.5.5 0 0 0 .382.16z" style="-inkscape-font-specification:'Bauhaus 93, '" aria-label="C" font-weight="400" font-size="5.644" font-family="Bauhaus 93" letter-spacing="0" word-spacing="0"/></g><path d="M5.067 69.072c-.005 0-.005-.002-.006-.035l-.006-.37a20.274 20.274 0 0 0-.006-.337l-.033-.003a.501.501 0 0 1-.34-.151.554.554 0 0 1-.155-.335 1.015 1.015 0 0 1-.001-.16.572.572 0 0 1 .164-.36.49.49 0 0 1 .342-.15.685.685 0 0 0 .035-.003 79.348 79.348 0 0 0 .02-.741 1.322 1.322 0 0 1-.014 2.645z" fill="#afdde9"/><g style="line-height:1.25;-inkscape-font-specification:'Bauhaus 93, '"><path d="M5.26 121.59a1.282 1.282 0 0 1-1.305-1.315c0-.374.128-.69.382-.946.255-.256.569-.384.942-.384l-.018.742a.513.513 0 0 0-.392.166.6.6 0 0 0-.153.423c0 .165.05.302.151.41.101.107.229.16.383.16z" style="-inkscape-font-specification:'Bauhaus 93, '" aria-label="C" font-weight="400" font-size="5.644" font-family="Bauhaus 93" letter-spacing="0" word-spacing="0"/></g><path d="M5.267 121.59c-.004 0-.004-.002-.006-.035l-.005-.37a20.274 20.274 0 0 0-.006-.336.167.167 0 0 0-.033-.004.501.501 0 0 1-.34-.151.554.554 0 0 1-.156-.335 1.015 1.015 0 0 1 0-.159.572.572 0 0 1 .164-.361.49.49 0 0 1 .342-.15.685.685 0 0 0 .034-.003 79.348 79.348 0 0 0 .02-.74 1.322 1.322 0 0 1-.014 2.645z" fill="#afdde9"/><text style="line-height:1.25" x="48.738" y="63.85" font-weight="400" font-size="10.583" font-family="sans-serif" letter-spacing="0" word-spacing="0" stroke-width=".265"><tspan x="48.738" y="63.85" font-size="2.822">Amaro</tspan></text><text style="line-height:1.25" x="53.608" y="67.797" font-weight="400" font-size="10.583" font-family="sans-serif" letter-spacing="0" word-spacing="0" stroke-width=".265"><tspan x="53.608" y="67.797" font-size="2.822">Amaro</tspan></text><path d="M50.968 68.204l-1.323-.662-1.323-.67 1.323-.652 1.323-.662v1.323z" fill="#50162d"/><text y="79.001" x="48.04" style="line-height:1.25" font-weight="400" font-size="10.583" font-family="sans-serif" letter-spacing="0" word-spacing="0" stroke-width=".265"><tspan y="79.001" x="48.04" font-size="2.822">Brandy</tspan></text><text y="83.165" x="55.011" style="line-height:1.25" font-weight="400" font-size="10.583" font-family="sans-serif" letter-spacing="0" word-spacing="0" stroke-width=".265"><tspan y="83.165" x="55.011" font-size="2.822">Apple Brandy</tspan></text><text y="89.912" x="55.083" style="line-height:1.25" font-weight="400" font-size="10.583" font-family="sans-serif" letter-spacing="0" word-spacing="0" stroke-width=".265"><tspan y="89.912" x="55.083" font-size="2.822">Wine Brandy</tspan></text><path d="M53.04 81.06l-.662 1.323-.671 1.322-.652-1.322-.661-1.323h1.323z" fill="#f60"/><path d="M53.374 87.875l-.662 1.323-.671 1.323-.652-1.323-.661-1.323h1.323z" fill="#c83737"/><text style="line-height:1.25" x="134.946" y="4.2" font-weight="400" font-size="10.583" font-family="sans-serif" letter-spacing="0" word-spacing="0" stroke-width=".265"><tspan x="134.946" y="4.2" font-size="2.822">Tequila</tspan></text><text style="line-height:1.25" x="141.917" y="8.364" font-weight="400" font-size="10.583" font-family="sans-serif" letter-spacing="0" word-spacing="0" stroke-width=".265"><tspan x="141.917" y="8.364" font-size="2.822">Tequila</tspan></text><text style="line-height:1.25" x="141.989" y="15.111" font-weight="400" font-size="10.583" font-family="sans-serif" letter-spacing="0" word-spacing="0" stroke-width=".265"><tspan x="141.989" y="15.111" font-size="2.822">Mezcal</tspan></text><text style="line-height:1.25" x="135.796" y="26.595" font-weight="400" font-size="10.583" font-family="sans-serif" letter-spacing="0" word-spacing="0" stroke-width=".265"><tspan x="135.796" y="26.595" font-size="2.822">Whiskey</tspan></text><text style="line-height:1.25" x="142.767" y="30.759" font-weight="400" font-size="10.583" font-family="sans-serif" letter-spacing="0" word-spacing="0" stroke-width=".265"><tspan x="142.767" y="30.759" font-size="2.822">Whiskey</tspan></text><text style="line-height:1.25" x="142.839" y="37.506" font-weight="400" font-size="10.583" font-family="sans-serif" letter-spacing="0" word-spacing="0" stroke-width=".265"><tspan x="142.839" y="37.506" font-size="2.822">Bourbon</tspan></text><text style="line-height:1.25" x="135.702" y="47.1" font-weight="400" font-size="10.583" font-family="sans-serif" letter-spacing="0" word-spacing="0" stroke-width=".265"><tspan x="135.702" y="47.1" font-size="2.822">Gin</tspan></text><text style="line-height:1.25" x="142.673" y="51.264" font-weight="400" font-size="10.583" font-family="sans-serif" letter-spacing="0" word-spacing="0" stroke-width=".265"><tspan x="142.673" y="51.264" font-size="2.822">Gin</tspan></text><text style="line-height:1.25" x="142.745" y="58.011" font-weight="400" font-size="10.583" font-family="sans-serif" letter-spacing="0" word-spacing="0" stroke-width=".265"><tspan x="142.745" y="58.011" font-size="2.822">Jenever</tspan></text><text style="line-height:1.25" x="136.458" y="69.212" font-weight="400" font-size="10.583" font-family="sans-serif" letter-spacing="0" word-spacing="0" stroke-width=".265"><tspan x="136.458" y="69.212" font-size="2.822">Rum</tspan></text><text style="line-height:1.25" x="143.429" y="73.375" font-weight="400" font-size="10.583" font-family="sans-serif" letter-spacing="0" word-spacing="0" stroke-width=".265"><tspan x="143.429" y="73.375" font-size="2.822">White Rum</tspan></text><text style="line-height:1.25" x="143.501" y="80.123" font-weight="400" font-size="10.583" font-family="sans-serif" letter-spacing="0" word-spacing="0" stroke-width=".265"><tspan x="143.501" y="80.123" font-size="2.822">Dark Rum</tspan></text><path d="M137.016 15.03l.662-1.323.671-1.323.652 1.323.661 1.323h-1.323z" fill="#d4aa00"/><path d="M137.489 8.132l.661-1.323.672-1.323.651 1.323.662 1.322h-1.323z" fill="#fd5"/><path d="M137.867 36.29l.44-.44 1.324 1.323-.441.44zm.882-.881l.44-.441 1.324 1.323-.441.44zm-.882-6.583h.882v2.646h-.882zm1.763 0h.883v2.646h-.882z" fill="#784421"/><path d="M139.473 50.858l-.74.741h-1.059l-.847-.74v-1.06l.847-.846h.953l.846.847z" fill="#80e5ff"/><path d="M139.379 57.473l-.741.74h-1.058l-.847-.74v-1.059l.847-.846h.952l.847.846z" fill="navy"/><path d="M140.418 79.286l-1.274 1.323-1.372-1.323 1.372-1.323z" fill="#784421"/><path d="M140.324 72.199l-1.274 1.323-1.372-1.323 1.372-1.323z" fill="#c8b7b7"/></svg>