<svg xmlns="http://www.w3.org/2000/svg" width="123.035" height="45.499" viewBox="0 0 32.553 12.038"><path style="line-height:normal;font-variant-ligatures:normal;font-variant-position:normal;font-variant-caps:normal;font-variant-numeric:normal;font-variant-alternates:normal;font-feature-settings:normal;text-indent:0;text-align:start;text-decoration-line:none;text-decoration-style:solid;text-decoration-color:#000;text-transform:none;text-orientation:mixed;white-space:normal;shape-padding:0;isolation:auto;mix-blend-mode:normal;solid-color:#000;solid-opacity:1" d="M16.61 0c-.007 0-.012.002-.019.003v.001c-2.06.075-3.078 1.25-3.562 2.401-.486 1.157-.453 2.293-.453 2.293l.001.002v.001c.197 2.466 1.537 4.092 3.323 5.198a11.74 11.74 0 0 1-2.882 1.329c-.128-.005-1.118-.042-2.53-.282-1.5-.254-3.311-.72-4.55-1.554-3.675-2.478-3.812-7.608-3.812-7.608l-.002-.064H.01v.066l-.005.149a11.756 11.756 0 0 0 .057 1.468c.093.92.322 2.13.863 3.354 1.082 2.448 3.426 4.95 8.407 5.281h.008c2.44-.204 4.678-.757 6.687-2.055.13.079.244.179.38.252 2.052 1.099 4.572 1.556 6.787 1.781.169-.003.34-.006.456-.013 4.264-.208 6.626-2.646 7.74-5.097 1.164-2.561 1.163-5.12 1.163-5.12h-.133s0 2.534-1.151 5.066c-1.111 2.443-3.329 4.828-7.621 4.994-.123-.052-1.844-.771-3.828-1.864-.738-.407-1.44-.886-2.133-1.356.163-.165.322-.332.464-.497 1.497-1.747 1.831-3.415 1.832-3.418.003-.009.368-1.103.133-2.244-.118-.573-.39-1.159-.936-1.616C18.634.393 17.816.067 16.615 0h-.002zm.011.134c1.172.067 1.956.385 2.474.818.52.436.778.99.892 1.541.227 1.103-.13 2.182-.13 2.182l-.002.004-.001.005s-.326 1.635-1.804 3.36c-.146.169-.308.34-.477.51-.232-.16-.509-.296-.722-.46-.878-.672-1.568-1.37-1.854-2.019-1.052-2.39-.635-3.866.036-4.755A3.592 3.592 0 0 1 16.62.134zm-.471.079a3.407 3.407 0 0 0-1.223 1.026c-.697.926-1.116 2.469-.05 4.89.302.688 1.008 1.391 1.894 2.07.205.158.468.288.692.441h.003c.784.507 1.585 1.066 2.29 1.458 1.897 1.045 3.389 1.668 3.658 1.782-.069 0-.114.026-.184.026-2.206-.224-4.735-.703-6.761-1.788-.12-.064-.218-.151-.334-.22l-.12-.08c-1.785-1.088-3.11-2.682-3.306-5.126V4.69c0-.006-.03-1.112.442-2.235.432-1.027 1.315-2.02 2.999-2.243zM.139 1.852h1.86c.006.19.192 5.173 3.866 7.649 1.268.855 3.092 1.32 4.601 1.576 1.222.207 1.847.225 2.19.243a16.16 16.16 0 0 1-3.32.585c-4.937-.33-7.224-2.789-8.29-5.202C.511 5.496.285 4.3.192 3.39a11.64 11.64 0 0 1-.057-1.452l.003-.086z" color="#000" font-weight="400" font-family="sans-serif" overflow="visible"/><path d="M9.087 11.88c-.922-.092-1.472-.182-2.15-.354-1.094-.277-2.058-.692-2.909-1.252a8.13 8.13 0 0 1-1.898-1.76C.867 6.896.142 4.597.141 2.204v-.35h1.852v.045c.001.205.082.876.158 1.302.381 2.153 1.266 4.011 2.53 5.314.994 1.026 2.077 1.632 3.803 2.127a20.21 20.21 0 0 0 2.902.578c.352.044.868.091 1.02.093.194.003.171.023-.107.096-1.158.302-2.671.524-3.212.47zm13.949 0a155.05 155.05 0 0 0-.455-.056c-2.345-.286-4.28-.805-5.798-1.556a5.715 5.715 0 0 1-.555-.317 42.88 42.88 0 0 0-.46-.3 7.475 7.475 0 0 1-1.273-1.033c-1.008-1.013-1.585-2.226-1.752-3.68-.089-.78.125-1.891.52-2.696.37-.758.895-1.292 1.616-1.646a4.247 4.247 0 0 1 1.137-.355l.074-.01-.136.079a3.25 3.25 0 0 0-.637.484 3.283 3.283 0 0 0-.722.98c-.253.508-.366 1.023-.366 1.668 0 .47.051.863.176 1.36.117.467.39 1.21.556 1.516.268.492.728 1.005 1.41 1.571.345.286.471.378.762.555.145.088.595.378 1 .643.829.545 1.16.755 1.496.947a42.286 42.286 0 0 0 3.415 1.694c.172.074.309.141.304.149-.008.014-.214.015-.312.002z" fill="#df5" stroke="red" stroke-width=".002"/></svg>