<svg xmlns="http://www.w3.org/2000/svg" width="90" height="90" viewBox="0 0 23.813 23.812"><path d="M11.865 1.626a26.4 26.4 0 0 0-2.1 1.357l-.413-.894a11.451 11.451 0 0 0-1.493 2.483l-.888-.896c-.462 1.418-.593 2.656-.576 3.654l-.825-.584c-.22 1.55-.113 2.838.097 3.838l-1.078-.293c.105.493.233.948.375 1.369a9.33 9.33 0 0 0-1.555-.326l.272.74a21.2 21.2 0 0 0-1.956.42 14.544 14.544 0 0 0-.402 1.963l-.758-.28c.108.884.317 1.628.561 2.25l-1.01-.004a8.907 8.907 0 0 0 1.742 2.391l-.797.138c.752 1 1.541 1.668 2.226 2.116l-.776.443a9.096 9.096 0 0 0 2.29 1.086l-.494.412c1.802.766 3.279.788 4.162.689 1.232.199 2.416.11 3.496-.021 1.03.118 2.151.185 3.311-.002.883.1 2.36.076 4.162-.69l-.494-.412a9.093 9.093 0 0 0 2.29-1.085l-.776-.444c.685-.447 1.474-1.116 2.226-2.116l-.797-.137a8.907 8.907 0 0 0 1.742-2.391l-1.01.004a9.157 9.157 0 0 0 .561-2.25l-.758.28a14.512 14.512 0 0 0-.402-1.963 21.133 21.133 0 0 0-1.957-.42l.273-.74a9.328 9.328 0 0 0-1.562.328c.14-.415.265-.863.367-1.348l-1.078.294c.21-1 .317-2.289.098-3.838l-.826.583c.017-.998-.113-2.235-.575-3.653l-.889.896a11.449 11.449 0 0 0-1.492-2.484l-.423.917c-.632-.49-1.33-.943-2.09-1.38z" fill="#fff" fill-opacity=".881" stroke="#1e8f1e" stroke-width=".265"/></svg>