<?xml version="1.0" encoding="UTF-8" standalone="no"?>
<!-- Created with Inkscape (http://www.inkscape.org/) -->

<svg
   xmlns:dc="http://purl.org/dc/elements/1.1/"
   xmlns:cc="http://creativecommons.org/ns#"
   xmlns:rdf="http://www.w3.org/1999/02/22-rdf-syntax-ns#"
   xmlns:svg="http://www.w3.org/2000/svg"
   xmlns="http://www.w3.org/2000/svg"
   xmlns:sodipodi="http://sodipodi.sourceforge.net/DTD/sodipodi-0.dtd"
   xmlns:inkscape="http://www.inkscape.org/namespaces/inkscape"
   width="32.552929mm"
   height="12.0383mm"
   viewBox="0 0 32.552929 12.038299"
   version="1.1"
   id="svg5344"
   inkscape:version="0.92.4 (5da689c313, 2019-01-14)"
   sodipodi:docname="orangetwist.svg">
  <defs
     id="defs5338">
    <inkscape:path-effect
       effect="simplify"
       id="path-effect819"
       is_visible="true"
       steps="1"
       threshold="0.5"
       smooth_angles="360"
       helper_size="0"
       simplify_individual_paths="false"
       simplify_just_coalesce="false"
       simplifyindividualpaths="false"
       simplifyJustCoalesce="false" />
  </defs>
  <sodipodi:namedview
     id="base"
     pagecolor="#ffffff"
     bordercolor="#666666"
     borderopacity="1.0"
     inkscape:pageopacity="0.0"
     inkscape:pageshadow="2"
     inkscape:zoom="16"
     inkscape:cx="44.845476"
     inkscape:cy="36.219987"
     inkscape:document-units="mm"
     inkscape:current-layer="layer1"
     showgrid="true"
     inkscape:window-width="3000"
     inkscape:window-height="1895"
     inkscape:window-x="-13"
     inkscape:window-y="-13"
     inkscape:window-maximized="1"
     fit-margin-top="0"
     fit-margin-left="0"
     fit-margin-right="0"
     fit-margin-bottom="0"
     inkscape:snap-nodes="false">
    <inkscape:grid
       type="xygrid"
       id="grid7016"
       originx="-17.635836"
       originy="-42.768474" />
  </sodipodi:namedview>
  <metadata
     id="metadata5341">
    <rdf:RDF>
      <cc:Work
         rdf:about="">
        <dc:format>image/svg+xml</dc:format>
        <dc:type
           rdf:resource="http://purl.org/dc/dcmitype/StillImage" />
        <dc:title></dc:title>
      </cc:Work>
    </rdf:RDF>
  </metadata>
  <g
     inkscape:label="Layer 1"
     inkscape:groupmode="layer"
     id="layer1"
     transform="translate(-66.923936,-144.71317)">
    <path
       style="color:#000000;font-style:normal;font-variant:normal;font-weight:normal;font-stretch:normal;font-size:medium;line-height:normal;font-family:sans-serif;font-variant-ligatures:normal;font-variant-position:normal;font-variant-caps:normal;font-variant-numeric:normal;font-variant-alternates:normal;font-feature-settings:normal;text-indent:0;text-align:start;text-decoration:none;text-decoration-line:none;text-decoration-style:solid;text-decoration-color:#000000;letter-spacing:normal;word-spacing:normal;text-transform:none;writing-mode:lr-tb;direction:ltr;text-orientation:mixed;dominant-baseline:auto;baseline-shift:baseline;text-anchor:start;white-space:normal;shape-padding:0;clip-rule:nonzero;display:inline;overflow:visible;visibility:visible;opacity:1;isolation:auto;mix-blend-mode:normal;color-interpolation:sRGB;color-interpolation-filters:linearRGB;solid-color:#000000;solid-opacity:1;vector-effect:none;fill:#000000;fill-opacity:1;fill-rule:nonzero;stroke:none;stroke-width:0.13229166px;stroke-linecap:butt;stroke-linejoin:miter;stroke-miterlimit:4;stroke-dasharray:none;stroke-dashoffset:0;stroke-opacity:1;color-rendering:auto;image-rendering:auto;shape-rendering:auto;text-rendering:auto;enable-background:accumulate"
       d="m 83.533697,144.71317 c -0.007,2.3e-4 -0.0116,0.002 -0.0186,0.003 0,0 -9.26e-4,0.001 -0.0011,0.001 -2.059711,0.0746 -3.077291,1.24923 -3.56154,2.4014 -0.485992,1.15633 -0.452168,2.29288 -0.452168,2.29288 l 0.001,0.002 v 10e-4 c 0.196696,2.46529 1.536216,4.09184 3.322278,5.19814 -0.795266,0.51379 -1.746928,0.97318 -2.881736,1.32834 -0.127935,-0.005 -1.118231,-0.042 -2.530337,-0.28138 -1.499831,-0.25423 -3.31091,-0.7202 -4.548791,-1.55468 -3.675542,-2.47777 -3.812428,-7.60729 -3.812428,-7.60729 l -0.0021,-0.0646 h -2.115116 v 0.0664 c 0,0.01 -0.0025,0.0655 -0.0049,0.14857 -0.0024,0.0831 -0.0048,0.19692 -0.0041,0.33771 0.0013,0.28158 0.01396,0.66956 0.06072,1.1299 0.09352,0.9207 0.322082,2.13069 0.863254,3.35458 1.082346,2.44776 3.425762,4.94923 8.407239,5.28133 h 0.0049 0.0039 c 2.439443,-0.20473 4.678138,-0.75759 6.686414,-2.05492 0.131355,0.0784 0.244159,0.17835 0.38008,0.25115 2.0528,1.09945 4.572231,1.55625 6.786971,1.78158 0.169259,-0.003 0.34048,-0.006 0.456769,-0.0127 4.263165,-0.20851 6.625624,-2.6464 7.739579,-5.0971 1.16443,-2.56174 1.162978,-5.1201 1.162978,-5.1201 h -0.132808 c 0,0 -5.29e-4,2.53383 -1.151352,5.06532 -1.110804,2.44377 -3.328466,4.8284 -7.620981,4.99427 -0.122648,-0.0516 -1.843622,-0.77109 -3.82819,-1.86423 -0.737815,-0.4064 -1.439667,-0.88525 -2.132686,-1.35547 0.163236,-0.16546 0.322089,-0.3318 0.463796,-0.49713 1.497178,-1.74671 1.831278,-3.41463 1.831929,-3.41788 0.0031,-0.009 0.368836,-1.10291 0.133842,-2.2443 -0.117987,-0.57308 -0.390325,-1.15881 -0.936636,-1.61618 -0.546309,-0.45738 -1.363572,-0.78388 -2.564442,-0.8506 h -0.0028 z m 0.01163,0.13385 c 1.171438,0.0676 1.955827,0.38468 2.473751,0.81829 0.520291,0.4356 0.777894,0.98959 0.891418,1.54099 0.227045,1.10279 -0.129708,2.18152 -0.129708,2.18152 l -0.0021,0.004 -0.0011,0.005 c 0,0 -0.325839,1.63523 -1.803765,3.35948 -0.145566,0.16983 -0.307787,0.34062 -0.476457,0.51057 -0.232406,-0.16003 -0.509066,-0.29522 -0.722696,-0.45889 -0.877763,-0.67249 -1.567893,-1.37083 -1.853374,-2.01952 -1.052089,-2.39063 -0.634941,-3.86604 0.03514,-4.75578 0.663571,-0.88109 1.571027,-1.1799 1.588793,-1.18571 z m -0.471547,0.0791 c -0.345309,0.17551 -0.795445,0.45904 -1.222665,1.0263 -0.696854,0.92528 -1.116387,2.46855 -0.0509,4.88962 0.302834,0.68812 1.008383,1.39156 1.894459,2.07042 0.205688,0.15758 0.468233,0.28793 0.692722,0.4408 l 0.0026,-5.2e-4 c 0.784426,0.50724 1.584518,1.06662 2.289265,1.45805 1.897751,1.04532 3.38969,1.66812 3.658951,1.78232 -0.06889,0.001 -0.114525,0.0264 -0.184485,0.0264 -2.205451,-0.22457 -4.734974,-0.70325 -6.760828,-1.78827 -0.119676,-0.0641 -0.217847,-0.15128 -0.33383,-0.21962 1.33e-4,-1.1e-4 3.97e-4,-1.5e-4 5.29e-4,-2.7e-4 l -0.121439,-0.0793 v -2.7e-4 c -1.783844,-1.08863 -3.10965,-2.68305 -3.304975,-5.12706 -2.7e-5,-3.4e-4 2.8e-5,-5.3e-4 0,-0.001 -1.72e-4,-0.006 -0.03023,-1.11193 0.441575,-2.23449 0.431842,-1.02749 1.314731,-2.02075 2.999042,-2.24302 z m -16.010911,1.63866 h 1.860352 c 0.0059,0.19011 0.192062,5.17312 3.865397,7.6494 1.268339,0.85502 3.092787,1.3204 4.601528,1.57614 1.221621,0.20706 1.846791,0.22467 2.189272,0.24313 -0.979285,0.27857 -2.061156,0.49479 -3.319178,0.58498 -4.937266,-0.33055 -7.223899,-2.78905 -8.290966,-5.20227 -0.533697,-1.20697 -0.76015,-2.40277 -0.852661,-3.31349 -0.04626,-0.45535 -0.05918,-0.83891 -0.06046,-1.11698 -6.49e-4,-0.13904 0.0015,-0.25214 0.0039,-0.33409 0.0014,-0.0468 0.0018,-0.0606 0.0028,-0.0868 z"
       id="path833"
       inkscape:connector-curvature="0"
       sodipodi:nodetypes="ccccccccccscccssscscccccccsccccccscsccccccscccccccccccsccccccccccccccccccsccssccccc" />
    <path
       style="fill:#ffa214;fill-opacity:1;stroke:#ff0000;stroke-width:0.00625;stroke-miterlimit:4;stroke-dasharray:none;stroke-opacity:1"
       d="M 34.345476,44.899901 C 30.859149,44.554192 28.782469,44.21264 26.215659,43.56279 22.082449,42.516368 18.441494,40.948536 15.224287,38.829795 12.573407,37.084016 10.069042,34.761762 8.0515086,32.178602 3.2749896,26.062958 0.53524358,17.373024 0.53326657,8.3322225 L 0.53297614,7.0040976 h 3.49999996 3.5 l 6.438e-4,0.171875 c 0.00292,0.7779913 0.3089275,3.3119764 0.5945287,4.9231454 1.4421769,8.135791 4.7860904,15.160012 9.5610774,20.083989 3.759973,3.877292 7.854044,6.166401 14.375,8.037464 3.179781,0.912376 7.177982,1.708992 10.96875,2.185452 1.331809,0.167394 3.280014,0.345528 3.854849,0.352468 0.733919,0.0089 0.647244,0.08665 -0.402038,0.360838 -4.378852,1.14423 -10.098225,1.983068 -12.140311,1.780572 z"
       id="path995"
       inkscape:connector-curvature="0"
       transform="matrix(0.26458333,0,0,0.26458333,66.923936,144.71317)" />
    <path
       style="fill:#ffa214;fill-opacity:1;stroke:#ff0000;stroke-width:0.00625;stroke-miterlimit:4;stroke-dasharray:none;stroke-opacity:1"
       d="M 87.064226,44.898448 C 86.961101,44.885017 86.187663,44.79006 85.345476,44.687432 76.48282,43.607441 69.16909,41.645829 63.431452,38.809883 c -0.667097,-0.329726 -1.528519,-0.822409 -2.095435,-1.198466 -0.529463,-0.351213 -1.313465,-0.86341 -1.742226,-1.138215 -1.719365,-1.10199 -3.304925,-2.387753 -4.811147,-3.901458 -3.808176,-3.827092 -5.989269,-8.41144 -6.618619,-13.911396 -0.337072,-2.945705 0.471347,-7.143949 1.961717,-10.1875005 1.402706,-2.8645295 3.38422,-4.8814316 6.111014,-6.2201526 1.239359,-0.6084643 2.981773,-1.1526006 4.29622,-1.34166172 l 0.28125,-0.0404531 -0.515651,0.30113372 C 59.40693,1.6924225 58.65826,2.2611037 57.889285,3.001781 56.661502,4.1843822 55.895633,5.2231928 55.160687,6.7027983 54.206199,8.6243882 53.779665,10.572809 53.78007,13.009505 c 2.94e-4,1.774381 0.192294,3.261975 0.663355,5.139612 0.44278,1.764912 1.474045,4.574169 2.103447,5.729981 1.013363,1.8609 2.750907,3.796642 5.329854,5.937821 1.301456,1.080539 1.777977,1.427741 2.877441,2.09656 0.548658,0.333755 2.249121,1.428482 3.778809,2.432724 3.134416,2.057749 4.388858,2.850856 5.65625,3.576097 3.184352,1.822185 9.226576,4.821124 12.904945,6.405116 0.650941,0.28031 1.168994,0.533173 1.151228,0.561918 -0.03167,0.05125 -0.811468,0.05727 -1.181173,0.0091 z"
       id="path997"
       inkscape:connector-curvature="0"
       transform="matrix(0.26458333,0,0,0.26458333,66.923936,144.71317)" />
  </g>
  <g
     inkscape:groupmode="layer"
     id="masklayer"
     inkscape:label="masklayer 1"
     style="fill:#ffffff"
     transform="translate(-16.467381,-4.85677)" />
</svg>
