<?xml version="1.0" encoding="UTF-8" standalone="no"?>
<!-- Created with Inkscape (http://www.inkscape.org/) -->

<svg
   xmlns:dc="http://purl.org/dc/elements/1.1/"
   xmlns:cc="http://creativecommons.org/ns#"
   xmlns:rdf="http://www.w3.org/1999/02/22-rdf-syntax-ns#"
   xmlns:svg="http://www.w3.org/2000/svg"
   xmlns="http://www.w3.org/2000/svg"
   xmlns:sodipodi="http://sodipodi.sourceforge.net/DTD/sodipodi-0.dtd"
   xmlns:inkscape="http://www.inkscape.org/namespaces/inkscape"
   width="23.8125mm"
   height="23.8125mm"
   viewBox="0 0 23.8125 23.812499"
   version="1.1"
   id="svg5344"
   inkscape:version="0.92.4 (5da689c313, 2019-01-14)"
   sodipodi:docname="slice_jalapeno.svg">
  <defs
     id="defs5338">
    <inkscape:path-effect
       effect="simplify"
       id="path-effect819"
       is_visible="true"
       steps="1"
       threshold="0.5"
       smooth_angles="360"
       helper_size="0"
       simplify_individual_paths="false"
       simplify_just_coalesce="false"
       simplifyindividualpaths="false"
       simplifyJustCoalesce="false" />
  </defs>
  <sodipodi:namedview
     id="base"
     pagecolor="#ffffff"
     bordercolor="#666666"
     borderopacity="1.0"
     inkscape:pageopacity="0.0"
     inkscape:pageshadow="2"
     inkscape:zoom="4"
     inkscape:cx="60.582151"
     inkscape:cy="49.573549"
     inkscape:document-units="mm"
     inkscape:current-layer="layer1"
     showgrid="true"
     inkscape:window-width="3000"
     inkscape:window-height="1895"
     inkscape:window-x="-13"
     inkscape:window-y="-13"
     inkscape:window-maximized="1"
     fit-margin-top="0"
     fit-margin-left="0"
     fit-margin-right="0"
     fit-margin-bottom="0"
     inkscape:snap-nodes="true"
     showguides="true">
    <inkscape:grid
       type="xygrid"
       id="grid7016"
       originx="-17.635836"
       originy="-36.74931" />
  </sodipodi:namedview>
  <metadata
     id="metadata5341">
    <rdf:RDF>
      <cc:Work
         rdf:about="">
        <dc:format>image/svg+xml</dc:format>
        <dc:type
           rdf:resource="http://purl.org/dc/dcmitype/StillImage" />
        <dc:title></dc:title>
      </cc:Work>
    </rdf:RDF>
  </metadata>
  <g
     inkscape:label="Layer 1"
     inkscape:groupmode="layer"
     id="layer1"
     transform="translate(-66.923935,-138.95813)">
    <g
       id="g1691">
      <path
         sodipodi:nodetypes="scsssss"
         inkscape:connector-curvature="0"
         id="path1661"
         d="m 83.130834,152.20266 c -0.455626,0.86637 -1.828152,8.68811 -4.349089,10.28567 -3.035313,-1.33297 -3.829063,-9.27047 -4.464843,-10.21953 -0.61682,-0.92075 -5.595894,-7.27978 -5.013523,-8.12988 0.953352,-1.39161 7.597973,1.54837 9.41222,1.54837 1.65137,0 8.748461,-2.83198 9.718885,-1.6467 0.746982,0.91236 -4.711987,7.03702 -5.30365,8.16207 z"
         style="fill:#e1ed92;fill-opacity:1;stroke:none;stroke-width:0.26458332;stroke-miterlimit:4;stroke-dasharray:none;stroke-opacity:1" />
      <g
         id="g1694">
        <path
           inkscape:connector-curvature="0"
           style="fill:#bcd35f;fill-opacity:1;stroke:none;stroke-width:0.52916664;stroke-miterlimit:4;stroke-dasharray:none;stroke-opacity:1"
           d="m 78.830185,138.95813 a 11.90625,11.90625 0 0 0 -11.90625,11.90625 11.90625,11.90625 0 0 0 11.90625,11.90625 11.90625,11.90625 0 0 0 11.90625,-11.90625 11.90625,11.90625 0 0 0 -11.90625,-11.90625 z m 0,0.59531 a 11.310938,11.310938 0 0 1 11.310937,11.31094 11.310938,11.310938 0 0 1 -11.310937,11.31094 11.310938,11.310938 0 0 1 -11.310938,-11.31094 11.310938,11.310938 0 0 1 11.310938,-11.31094 z"
           id="path9816" />
      </g>
    </g>
  </g>
  <g
     inkscape:groupmode="layer"
     id="masklayer"
     inkscape:label="masklayer 1"
     style="fill:#ffffff"
     transform="translate(-16.46738,0.89827012)" />
</svg>
