<svg xmlns="http://www.w3.org/2000/svg" width="90" height="90" viewBox="0 0 23.813 23.812"><path d="M16.207 13.245c-.456.866-1.828 8.688-4.35 10.285-3.035-1.333-3.828-9.27-4.464-10.22-.617-.92-5.596-7.28-5.014-8.13.954-1.39 7.598 1.55 9.413 1.55 1.651 0 8.748-2.833 9.719-1.648.747.913-4.712 7.037-5.304 8.163z" fill="#e1ed92"/><path d="M11.906 0A11.906 11.906 0 0 0 0 11.906a11.906 11.906 0 0 0 11.906 11.906 11.906 11.906 0 0 0 11.906-11.906A11.906 11.906 0 0 0 11.906 0zm0 .595a11.31 11.31 0 0 1 11.311 11.311 11.31 11.31 0 0 1-11.31 11.311A11.31 11.31 0 0 1 .594 11.907 11.31 11.31 0 0 1 11.906.594z" fill="#bcd35f"/></svg>