<svg xmlns="http://www.w3.org/2000/svg" width="90" height="90" viewBox="0 0 23.813 23.812"><path d="M11.848 22.197c-.006-.56-.011-2.9-.011-5.197s-.005-4.281-.01-4.409l-.012-.232-2.539 2.547-3.855 3.867-1.315 1.319-.087-.088-.087-.088 3.326-3.34a4239.01 4239.01 0 0 0 3.816-3.833l.49-.494-5.478.01-5.477.011v-.243l2.26-.011c1.243-.006 3.737-.011 5.543-.011h3.284l-.851-.85-3.977-3.96-3.124-3.112.085-.086.085-.085.824.813c.453.446 1.125 1.114 1.493 1.484.368.37 1.778 1.774 3.132 3.122l2.462 2.45-.01-5.584-.008-5.585.033-.01a.384.384 0 0 1 .12 0l.086.01.011 1.64c.006.901.011 3.401.011 5.555s.006 3.917.014 3.917 1.766-1.76 3.907-3.91l3.893-3.908.09.088.09.088-3.935 3.946c-2.164 2.17-3.937 3.952-3.939 3.958-.002.006 1.259.01 2.803.007l5.516-.01 2.708-.005-.005.117-.004.116-.323.01c-.177.006-2.26.012-4.63.015-2.37.002-4.678.009-5.13.014l-.824.01.832.828 3.806 3.792 2.976 2.964-.085.085-.085.085-.526-.515c-.29-.283-.883-.872-1.32-1.31-.436-.438-1.924-1.921-3.305-3.296l-2.511-2.5.006 5.407.006 5.408-.117.005-.117.005zM11.906 0A11.906 11.906 0 0 0 0 11.906a11.906 11.906 0 0 0 11.906 11.906 11.906 11.906 0 0 0 11.907-11.906A11.906 11.906 0 0 0 11.906 0zm0 .595a11.31 11.31 0 0 1 11.311 11.311 11.31 11.31 0 0 1-11.31 11.311A11.31 11.31 0 0 1 .594 11.907 11.31 11.31 0 0 1 11.906.594zm-7.998 19.52L19.986 3.98M3.698 3.862L19.834 19.94M.587 12.143l22.78-.04M11.93.5l.041 22.78" fill="#ffa214"/></svg>