<?xml version="1.0" encoding="UTF-8" standalone="no"?>
<!-- Created with Inkscape (http://www.inkscape.org/) -->

<svg
   xmlns:dc="http://purl.org/dc/elements/1.1/"
   xmlns:cc="http://creativecommons.org/ns#"
   xmlns:rdf="http://www.w3.org/1999/02/22-rdf-syntax-ns#"
   xmlns:svg="http://www.w3.org/2000/svg"
   xmlns="http://www.w3.org/2000/svg"
   xmlns:sodipodi="http://sodipodi.sourceforge.net/DTD/sodipodi-0.dtd"
   xmlns:inkscape="http://www.inkscape.org/namespaces/inkscape"
   width="2.6458335mm"
   height="2.6458333mm"
   viewBox="0 0 2.6458335 2.6458333"
   version="1.1"
   id="svg872"
   inkscape:version="0.92.4 (5da689c313, 2019-01-14)"
   sodipodi:docname="style9_redwine.svg">
  <defs
     id="defs866" />
  <sodipodi:namedview
     id="base"
     pagecolor="#ffffff"
     bordercolor="#666666"
     borderopacity="1.0"
     inkscape:pageopacity="0.0"
     inkscape:pageshadow="2"
     inkscape:zoom="64"
     inkscape:cx="6.240293"
     inkscape:cy="7.3366891"
     inkscape:document-units="mm"
     inkscape:current-layer="layer1"
     showgrid="true"
     fit-margin-top="0"
     fit-margin-left="0"
     fit-margin-right="0"
     fit-margin-bottom="0"
     inkscape:window-width="3000"
     inkscape:window-height="1895"
     inkscape:window-x="-13"
     inkscape:window-y="-13"
     inkscape:window-maximized="1">
    <inkscape:grid
       type="xygrid"
       id="grid2433"
       originx="-6.1366257e-07"
       originy="-8.4994541e-09" />
  </sodipodi:namedview>
  <metadata
     id="metadata869">
    <rdf:RDF>
      <cc:Work
         rdf:about="">
        <dc:format>image/svg+xml</dc:format>
        <dc:type
           rdf:resource="http://purl.org/dc/dcmitype/StillImage" />
        <dc:title></dc:title>
      </cc:Work>
    </rdf:RDF>
  </metadata>
  <g
     inkscape:label="Layer 1"
     inkscape:groupmode="layer"
     id="layer1"
     transform="translate(0.08581342,-1.7135204)">
    <path
       style="fill:#800000;fill-opacity:1;stroke:none;stroke-width:0.00313066;stroke-miterlimit:4;stroke-dasharray:none;stroke-opacity:0.92710996"
       d="M 1.1646671,4.3539078 C 1.1787721,4.3064563 1.1936651,4.2337318 1.2014351,4.1743071 1.2234888,4.0057097 1.2123839,3.8296284 1.1695613,3.6687037 1.0702254,3.2954336 0.81002799,2.9829327 0.45681019,2.8126783 0.29608951,2.7352101 0.13360164,2.6930737 -0.05820753,2.6791254 c -0.01518432,-0.00111 -0.02760589,-0.00281 -0.02760589,-0.00381 0,-0.00677 0.02610581,-0.082081 0.04318951,-0.1245976 C 0.0265279,2.3786133 0.12484443,2.2319231 0.25945234,2.1000102 0.48541811,1.8785676 0.76725289,1.7490537 1.0924979,1.7171937 c 0.056528,-0.00554 0.195119,-0.00466 0.2539597,0.00159 0.369117,0.039241 0.694095,0.2135525 0.921195,0.4941145 0.2637641,0.3258585 0.3556222,0.753784 0.2486877,1.158523 C 2.4766474,3.52165 2.4018698,3.6782676 2.3093241,3.8049968 2.0549728,4.1532956 1.6480908,4.3593537 1.2146912,4.3593537 c -0.04769,0 -0.051516,-4.204e-4 -0.050026,-0.00542 z"
       id="path2482"
       inkscape:connector-curvature="0" />
  </g>
</svg>
