<svg xmlns="http://www.w3.org/2000/svg" width="10" height="10" viewBox="0 0 2.646 2.646"><g style="line-height:1.25;-inkscape-font-specification:'Bauhaus 93, '"><path style="-inkscape-font-specification:'Bauhaus 93, '" d="M1.305 2.646A1.282 1.282 0 0 1 0 1.33C0 .956.127.641.381.384A1.28 1.28 0 0 1 1.323 0l-.018.742a.513.513 0 0 0-.392.166.6.6 0 0 0-.153.423c0 .165.05.302.151.41.101.107.229.16.383.16z" aria-label="C" font-weight="400" font-size="5.644" font-family="Bauhaus 93" letter-spacing="0" word-spacing="0"/></g><path d="M1.311 2.645c-.004 0-.004-.002-.005-.035L1.3 2.24a20.274 20.274 0 0 0-.006-.336.154.154 0 0 0-.033-.004.501.501 0 0 1-.34-.151.554.554 0 0 1-.155-.335 1.015 1.015 0 0 1-.002-.16.572.572 0 0 1 .165-.36.49.49 0 0 1 .342-.15.685.685 0 0 0 .035-.003 79.348 79.348 0 0 0 .02-.74 1.322 1.322 0 0 1-.014 2.645z" fill="#ab37c8"/></svg>