<?xml version="1.0" encoding="UTF-8" standalone="no"?>
<!-- Created with Inkscape (http://www.inkscape.org/) -->

<svg
   xmlns:dc="http://purl.org/dc/elements/1.1/"
   xmlns:cc="http://creativecommons.org/ns#"
   xmlns:rdf="http://www.w3.org/1999/02/22-rdf-syntax-ns#"
   xmlns:svg="http://www.w3.org/2000/svg"
   xmlns="http://www.w3.org/2000/svg"
   xmlns:sodipodi="http://sodipodi.sourceforge.net/DTD/sodipodi-0.dtd"
   xmlns:inkscape="http://www.inkscape.org/namespaces/inkscape"
   width="2.6458335mm"
   height="2.6458333mm"
   viewBox="0 0 2.6458335 2.6458333"
   version="1.1"
   id="svg872"
   inkscape:version="0.92.4 (5da689c313, 2019-01-14)"
   sodipodi:docname="base.svg">
  <defs
     id="defs866" />
  <sodipodi:namedview
     id="base"
     pagecolor="#ffffff"
     bordercolor="#666666"
     borderopacity="1.0"
     inkscape:pageopacity="0.0"
     inkscape:pageshadow="2"
     inkscape:zoom="64"
     inkscape:cx="6.240293"
     inkscape:cy="7.3366891"
     inkscape:document-units="mm"
     inkscape:current-layer="layer1"
     showgrid="true"
     fit-margin-top="0"
     fit-margin-left="0"
     fit-margin-right="0"
     fit-margin-bottom="0"
     inkscape:window-width="3000"
     inkscape:window-height="1895"
     inkscape:window-x="-13"
     inkscape:window-y="-13"
     inkscape:window-maximized="1">
    <inkscape:grid
       type="xygrid"
       id="grid2433"
       originx="-6.1366257e-07"
       originy="-8.4994541e-09" />
  </sodipodi:namedview>
  <metadata
     id="metadata869">
    <rdf:RDF>
      <cc:Work
         rdf:about="">
        <dc:format>image/svg+xml</dc:format>
        <dc:type
           rdf:resource="http://purl.org/dc/dcmitype/StillImage" />
        <dc:title></dc:title>
      </cc:Work>
    </rdf:RDF>
  </metadata>
  <g
     inkscape:label="Layer 1"
     inkscape:groupmode="layer"
     id="layer1"
     transform="translate(0.08581342,-1.7135204)">
    <g
       transform="matrix(0.14341737,0,0,0.14844022,-9.1047283,-5.9300139)"
       id="layer1-6-6"
       inkscape:label="Layer 1"
       inkscape:tile-cx="2.3060608"
       inkscape:tile-cy="2.2368143"
       inkscape:tile-w="4.6121216"
       inkscape:tile-h="4.4560586"
       inkscape:tile-x0="-2.6747685e-08"
       inkscape:tile-y0="0.0087849892"
       style="fill:#ff6600">
      <path
         inkscape:connector-curvature="0"
         style="fill:#ff6600;stroke:none;stroke-width:0.81578892;stroke-miterlimit:4;stroke-dasharray:none;stroke-opacity:0.92710996"
         d="M 8.7167969,0.03320312 A 8.7162772,8.4205925 0 0 0 0,8.4550781 8.7162772,8.4205925 0 0 0 8.7167969,16.875 8.7162772,8.4205925 0 0 0 17.431641,8.4550781 8.7162772,8.4205925 0 0 0 8.7167969,0.03320312 Z m 0,4.21093748 A 4.3581386,4.2102962 0 0 1 13.074219,8.4550781 4.3581386,4.2102962 0 0 1 8.7167969,12.664062 4.3581386,4.2102962 0 0 1 4.3574219,8.4550781 4.3581386,4.2102962 0 0 1 8.7167969,4.2441406 Z"
         transform="matrix(1.0583333,0,0,1.0583333,62.885792,51.4572)"
         id="path868-1" />
    </g>
  </g>
</svg>
