<svg xmlns="http://www.w3.org/2000/svg" width="90" height="46" viewBox="0 0 23.813 12.171"><path d="M11.906.206C5.331.206 0 5.536 0 12.112l.007.059h.591l-.003-.06C.595 5.866 5.66.802 11.906.802s11.311 5.064 11.311 11.31l-.007.06h.6l.002-.06c0-6.575-5.33-11.905-11.906-11.905zm-.066.602l-.033.01.009 5.585.01 5.584-2.463-2.45A1779.243 1779.243 0 0 1 6.23 6.414 299.81 299.81 0 0 0 4.738 4.93l-.824-.812-.085.085-.085.085 3.124 3.113 3.977 3.96.812.81h.552c.021-.025 1.765-1.778 3.918-3.937l3.934-3.947-.09-.088-.089-.087-3.893 3.909c-2.142 2.15-3.9 3.908-3.907 3.908-.008 0-.013-1.762-.013-3.916s-.006-4.654-.012-5.556L12.047.82 11.96.808a.383.383 0 0 0-.12 0z" fill="#de87aa"/></svg>