<svg xmlns="http://www.w3.org/2000/svg" width="246.003" height="375.682" viewBox="0 0 65.088 99.399"><path d="M29.3 51.991c-2.218-2.14-3.885-3.948-4.735-5.133-1.763-2.458-3.562-6.96-4.773-11.95-.92-3.792-1.462-7.482-1.74-11.834-.078-1.23-.077-5.867.001-7.062.367-5.586 1.214-10.217 2.749-15.026l.257-.807h10.938c10.374 0 10.94.005 10.97.082.174.448.7 2.006.963 2.852a57.8 57.8 0 0 1 2.428 12.735c.213 2.79.204 6.247-.025 9.144-.444 5.627-1.697 11.287-3.646 16.464-.872 2.317-2.007 4.744-2.713 5.8-.875 1.31-2.519 3.155-4.46 5.008l-1 .955h-3.941z" fill="#fff"/></svg>