<svg xmlns="http://www.w3.org/2000/svg" width="208.072" height="375.515" viewBox="0 0 55.052 99.355"><path d="M20.422 97.764l-8.246-.051.096-8.928c.094-8.73-.12-18.363-.527-23.579-.434-5.583-1.292-10.17-3.954-21.135-.925-3.809-1.938-8.213-2.252-9.788-1.025-5.14-2.081-13.651-3.222-25.958a695.459 695.459 0 0 0-.676-7.04L1.535.388h52.008l-.1.803c-.055.442-.15 1.569-.21 2.504-.242 3.728-1.073 13.286-1.52 17.481-.976 9.14-1.565 12.312-4.416 23.77-2.905 11.675-3.484 14.952-4.064 23.005-.474 6.583-1.042 21.79-1.05 28.112l-.002 1.843-6.756-.046c-3.716-.024-10.468-.068-15.003-.096z" fill="#fff"/></svg>