<svg xmlns="http://www.w3.org/2000/svg" width="208.072" height="375.515" viewBox="0 0 55.052 99.355"><path d="M.076.068h1.323S3.1 20.465 4.698 30.563C6.384 41.22 10.11 51.524 11.32 62.245c1.332 11.809.662 35.644.662 35.644l30.351.143s.2-23.914 1.537-35.72c1.217-10.76 5.067-21.1 6.823-31.787C52.348 20.45 53.653.068 53.653.068h1.324S53.3 20.46 51.724 30.559c-1.663 10.656-5.327 20.97-6.537 31.686-1.386 12.272-1.53 37.11-1.53 37.11H10.582s.733-24.863-.585-37.11c-1.16-10.765-4.453-21.193-6.68-31.789C1.226 20.486 1.158 10.197.077.068z" fill="none" stroke="#000" stroke-width=".136"/></svg>