<svg xmlns="http://www.w3.org/2000/svg" width="246.003" height="375.682" viewBox="0 0 65.088 99.399"><path d="M27.347 68.426c-3.206-1.801-5.82-3.537-7.218-4.793-.875-.787-1.322-1.507-1.808-2.917-2.076-6.02-2.863-20.383-1.88-34.32.693-9.828 2.246-18.871 4.353-25.333l.28-.86L31.993.186 42.912.169l.072.182c.222.558.596 1.665.97 2.869 2.165 6.978 3.572 15.182 4.264 24.863.907 12.683.102 26.743-1.874 32.753-.576 1.751-1.132 2.48-2.935 3.845-1.521 1.152-4.456 2.923-6.755 4.077l-.67.336h-7.449z" fill="#fff"/></svg>