<?xml version="1.0" encoding="UTF-8" standalone="no"?>
<!-- Created with Inkscape (http://www.inkscape.org/) -->

<svg
   xmlns:dc="http://purl.org/dc/elements/1.1/"
   xmlns:cc="http://creativecommons.org/ns#"
   xmlns:rdf="http://www.w3.org/1999/02/22-rdf-syntax-ns#"
   xmlns:svg="http://www.w3.org/2000/svg"
   xmlns="http://www.w3.org/2000/svg"
   xmlns:sodipodi="http://sodipodi.sourceforge.net/DTD/sodipodi-0.dtd"
   xmlns:inkscape="http://www.inkscape.org/namespaces/inkscape"
   width="55.052296mm"
   height="99.354897mm"
   viewBox="0 0 55.052296 99.354897"
   version="1.1"
   id="svg15349"
   inkscape:version="0.92.4 (5da689c313, 2019-01-14)"
   sodipodi:docname="imperal_stout_mask.svg">
  <defs
     id="defs15343" />
  <sodipodi:namedview
     id="base"
     pagecolor="#ffffff"
     bordercolor="#666666"
     borderopacity="1.0"
     inkscape:pageopacity="0.0"
     inkscape:pageshadow="2"
     inkscape:zoom="1.4"
     inkscape:cx="565.85232"
     inkscape:cy="20.191703"
     inkscape:document-units="mm"
     inkscape:current-layer="layer1"
     showgrid="true"
     fit-margin-top="0"
     fit-margin-left="0"
     fit-margin-right="0"
     fit-margin-bottom="0"
     inkscape:window-width="3000"
     inkscape:window-height="1895"
     inkscape:window-x="-13"
     inkscape:window-y="-13"
     inkscape:window-maximized="1">
    <inkscape:grid
       type="xygrid"
       id="grid15900" />
  </sodipodi:namedview>
  <metadata
     id="metadata15346">
    <rdf:RDF>
      <cc:Work
         rdf:about="">
        <dc:format>image/svg+xml</dc:format>
        <dc:type
           rdf:resource="http://purl.org/dc/dcmitype/StillImage" />
        <dc:title></dc:title>
      </cc:Work>
    </rdf:RDF>
  </metadata>
  <g
     inkscape:label="Layer 1"
     inkscape:groupmode="layer"
     id="layer1"
     transform="translate(195.34758,42.207209)">
    <path
       style="fill:#ffffff;fill-opacity:1;stroke:none;stroke-width:0.51389146;stroke-miterlimit:4;stroke-dasharray:none;stroke-opacity:1"
       d="m 77.185761,369.50169 -31.166559,-0.19372 0.36419,-33.74255 C 46.739528,302.56905 45.926034,266.16365 44.392024,246.44787 42.750352,225.34839 39.506324,208.01154 29.445335,166.56928 25.950341,152.17304 22.12027,135.52557 20.934066,129.5749 17.061482,110.14786 13.068534,77.979173 8.7562324,31.465723 7.5725134,18.697866 6.423813,6.7246517 6.203565,4.8585803 L 5.803114,1.4657232 h 98.282656 98.28266 l -0.37781,3.0357143 c -0.20779,1.6696428 -0.56532,5.9285715 -0.79452,9.4642855 -0.91335,14.089927 -4.05595,50.216061 -5.74753,66.071429 -3.68517,34.541388 -5.91252,46.531588 -16.6882,89.835868 -10.98092,44.12905 -13.16839,56.51221 -15.35958,86.94985 -1.79117,24.88098 -3.93756,82.35226 -3.96814,106.25 l -0.009,6.96428 -25.53572,-0.17086 c -14.04464,-0.094 -39.560662,-0.25805 -56.702269,-0.3646 z"
       id="path15906"
       inkscape:connector-curvature="0"
       transform="matrix(0.26458333,0,0,0.26458333,-195.34758,-42.207209)" />
  </g>
</svg>
